<svg xmlns="http://www.w3.org/2000/svg" viewBox="0 0 393 129" width="393" height="129" style="width:100%;height:100%;transform:translate3d(0,0,0);content-visibility:visible"><defs><clipPath id="a"><path d="M0 0h393v129H0z"/></clipPath><clipPath id="b"><path d="M0 0h393v129H0z"/></clipPath></defs><g clip-path="url(#a)"><g clip-path="url(#b)" style="display:block"><path fill="#62CBC9" d="M6.964-53.283V53.283H-6.964V-53.283z" transform="translate(6.965 63.207)" style="display:block"/><path fill="#FF876C" d="M28.202 55.252H4.032a4.032 4.032 0 1 1 0-8.063h24.17c10.787 0 19.563-8.776 19.563-19.563 0-10.788-8.776-19.564-19.563-19.564H15.541a4.03 4.03 0 1 1 0-8.062h12.661c15.233 0 27.626 12.393 27.626 27.626S43.435 55.252 28.202 55.252" transform="translate(18.384 64.453)" style="display:block"/><path fill="#80BC00" d="M52.386 39.396a7.5 7.5 0 0 1-7.499-7.499c0-9.318-7.581-16.899-16.899-16.899H7.499A7.5 7.5 0 0 1 7.499 0h20.489c17.588 0 31.898 14.309 31.898 31.897a7.5 7.5 0 0 1-7.5 7.499" transform="translate(20.671 9.193)" style="display:block"/><path fill="#62CBC9" d="M6.768-45.553v91.106H-6.768v-91.106z" transform="translate(102.873 55.476)" style="display:block"/><path fill="#95C121" d="M27.252-6.905v13.81h-54.504v-13.81z" transform="translate(136.664 121.331)" style="display:block"/><path fill="#80BC00" d="M22.797 74.988a7.77 7.77 0 0 1-5.462-2.236C6.318 61.911 0 46.344 0 30.042c0-8.938 1.814-17.501 5.394-25.45a7.787 7.787 0 0 1 14.202 6.394c-2.668 5.925-4.021 12.337-4.021 19.056 0 12.155 4.623 23.675 12.684 31.608a7.788 7.788 0 0 1-5.462 13.338" transform="translate(166.347 37.957)" style="display:block"/><path fill="#62CBC9" d="M16.244 57.459c-4.574 0-9.1-.714-13.453-2.122a4.032 4.032 0 0 1 2.482-7.671 35.6 35.6 0 0 0 10.971 1.731c22.041 0 39.973-20.351 39.973-45.366a4.031 4.031 0 0 1 8.062 0c0 29.461-21.548 53.428-48.035 53.428" transform="translate(205.77 61.967)" style="display:block"/><path fill="#FF876C" d="M0-7.062c4.186 0 7.585 3.164 7.585 7.062S4.186 7.063 0 7.063-7.585 3.898-7.585 0-4.186-7.062 0-7.062" transform="translate(193.709 26.242)" style="display:block"/><path fill="#80BC00" d="M4.029 27.87a4.032 4.032 0 0 1-3.64-5.758L9.775 2.306a4.031 4.031 0 0 1 7.286 3.452L7.675 25.564a4.03 4.03 0 0 1-3.646 2.306" transform="translate(232.283 -.001)" style="display:block"/><path fill="#80BC00" d="M4.035 20.07a4.032 4.032 0 0 1-2.385-7.285L18.049.779a4.032 4.032 0 0 1 4.763 6.505L6.413 19.291a4 4 0 0 1-2.378.779" transform="translate(248.865 17.264)" style="display:block"/><path fill="#80BC00" d="M4.028 11.533a4.033 4.033 0 0 1-.817-7.979L19.882.086a4.031 4.031 0 0 1 1.643 7.893L4.853 11.447a4 4 0 0 1-.825.086" transform="translate(258.375 43.16)" style="display:block"/><path fill="#62CBC9" d="M4.031 41.465a4.03 4.03 0 1 1 0-8.062c17.036 0 32.223-12.276 37.791-30.546a4.03 4.03 0 0 1 7.712 2.35C42.926 26.894 24.639 41.465 4.031 41.465" transform="rotate(3 -1334.583 6455.317)" style="display:block"/><path fill="#FF8D6B" d="M28.084-7.194V7.194h-56.168V-7.194z" transform="translate(358.74 69.924)" style="display:block"/><path fill="#95C121" d="M28.952 97.11a4 4 0 0 1-1.939-.499C13.888 89.396 4.487 76.53 1.224 61.312-4.715 33.621 11.53 6.573 37.434 1.017c7.135-1.53 14.344-1.333 21.429.583a4.03 4.03 0 0 1 2.839 4.943 4.034 4.034 0 0 1-4.944 2.84c-5.835-1.578-11.767-1.739-17.632-.482-21.559 4.623-35.025 27.376-30.018 50.72 2.773 12.93 10.715 23.837 21.789 29.925a4.03 4.03 0 0 1 1.591 5.474 4.03 4.03 0 0 1-3.536 2.09" transform="translate(293.332 19.063)" style="display:block"/><path fill="#D8ECE2" d="M27.467 39.522a4 4 0 0 1-.352-.015C10.655 38.083-1.446 22.012.14 3.684a4.032 4.032 0 0 1 8.033.695C6.97 18.278 15.779 30.433 27.81 31.474a4.032 4.032 0 0 1-.343 8.048" transform="translate(309.753 65.206)" style="display:block"/><path fill="#95C121" d="M0-6.281A6.284 6.284 0 0 1 6.281 0 6.284 6.284 0 0 1 0 6.281 6.284 6.284 0 0 1-6.281 0 6.284 6.284 0 0 1 0-6.281" transform="translate(364.335 43.265)" style="display:block"/><g transform="translate(331.853 43.239)" style="display:block"/><path fill="#002A3A" d="M3.776 2.884c-.491 0-.892.4-.892.891a.893.893 0 0 0 1.783 0c0-.491-.4-.891-.891-.891m0 4.666A3.78 3.78 0 0 1 0 3.775 3.78 3.78 0 0 1 3.776 0a3.78 3.78 0 0 1 3.775 3.775A3.78 3.78 0 0 1 3.776 7.55" transform="translate(64.031 51.13)" style="display:block"/><path fill="#002A3A" d="M3.893 2.884c-.556 0-1.009.404-1.009.9 0 .497.453.9 1.009.9s1.007-.403 1.007-.9c0-.496-.452-.9-1.007-.9m0 4.685C1.747 7.569 0 5.871 0 3.784 0 1.698 1.747 0 3.893 0s3.892 1.698 3.892 3.784c0 2.087-1.746 3.785-3.892 3.785" transform="translate(359.782 38.764)" style="display:block"/><path fill="#002A3A" d="M3.893 2.884c-.556 0-1.009.404-1.009.9 0 .497.453.901 1.009.901S4.9 4.281 4.9 3.784c0-.496-.452-.9-1.007-.9m0 4.685C1.746 7.569 0 5.871 0 3.784S1.746 0 3.893 0s3.892 1.697 3.892 3.784-1.746 3.785-3.892 3.785" transform="translate(153.745 103.594)" style="display:block"/><path fill="#002A3A" d="M1.442 108.836A1.44 1.44 0 0 1 0 107.394V1.442C0 .645.645 0 1.442 0h37.414c14.419 0 26.149 11.731 26.149 26.15v6.51a1.441 1.441 0 1 1-2.884 0v-6.51c0-12.829-10.437-23.266-23.265-23.266H2.884v104.51c0 .797-.645 1.442-1.442 1.442" transform="translate(6.727 14.941)" style="display:block"/><path fill="#002A3A" d="M24.934 64.374H1.442a1.441 1.441 0 1 1 0-2.884h23.492c16.158 0 29.303-13.146 29.303-29.304S41.092 2.884 24.934 2.884H13.109a1.442 1.442 0 1 1 0-2.884h11.825c17.748 0 32.187 14.438 32.187 32.186 0 17.749-14.439 32.188-32.187 32.188" transform="translate(21.548 60.349)" style="display:block"/><path fill="#002A3A" d="M25.638 80.457H1.442A1.44 1.44 0 0 1 0 79.015V1.442C0 .646.645 0 1.442 0h21.767c7.397 0 13.416 6.019 13.416 13.416V23.2a1.442 1.442 0 1 1-2.885 0v-9.784c0-5.807-4.724-10.532-10.531-10.532H2.884v74.689h22.754c7.423 0 13.463-6.041 13.463-13.464v-1.723c0-7.423-6.04-13.463-13.463-13.463H13.424a1.441 1.441 0 1 1 0-2.884h12.214c9.014 0 16.347 7.333 16.347 16.347v1.723c0 9.014-7.333 16.348-16.347 16.348" transform="translate(20.917 29.131)" style="display:block"/><path fill="#002A3A" d="M46.85 95.277H1.442A1.44 1.44 0 0 1 0 93.835V1.442a1.441 1.441 0 1 1 2.884 0v90.951H46.85a1.441 1.441 0 1 1 0 2.884" transform="translate(101.958 13.363)" style="display:block"/><path fill="#002A3A" d="M1.442 68.158A1.44 1.44 0 0 1 0 66.716V1.442a1.442 1.442 0 1 1 2.884 0v65.274c0 .797-.645 1.442-1.442 1.442" transform="translate(116.779 27.869)" style="display:block"/><path fill="#002A3A" d="M40.228 2.884H1.442a1.442 1.442 0 1 1 0-2.884h38.786a1.442 1.442 0 1 1 0 2.884" transform="translate(116.779 120.262)" style="display:block"/><path fill="#002A3A" d="M51.291 109.616C23.009 109.616 0 85.029 0 54.808S23.009 0 51.291 0c17.083 0 32.991 9.047 42.555 24.201a1.443 1.443 0 1 1-2.439 1.539C82.375 11.428 67.379 2.884 51.291 2.884 24.6 2.884 2.884 26.177 2.884 54.808s21.716 51.924 48.407 51.924 48.407-23.293 48.407-51.924a1.441 1.441 0 1 1 2.884 0c0 30.221-23.009 54.808-51.291 54.808" transform="translate(289.581 14.94)" style="display:block"/><path fill="#002A3A" d="M36.322 80.769C16.294 80.769 0 62.653 0 40.385S16.294 0 36.322 0c5.264 0 10.341 1.224 15.09 3.638a1.442 1.442 0 1 1-1.307 2.571c-4.341-2.206-8.978-3.325-13.783-3.325-18.438 0-33.438 16.823-33.438 37.501s15 37.5 33.438 37.5c18.008 0 32.736-16.047 33.415-36.058H31.805a1.441 1.441 0 1 1 0-2.884h39.398c.796 0 1.442.645 1.442 1.442 0 22.268-16.294 40.384-36.323 40.384" transform="translate(303.68 29.661)" style="display:block"/><path fill="#002A3A" d="M25.407 2.884H1.442a1.442 1.442 0 1 1 0-2.884h23.965a1.442 1.442 0 1 1 0 2.884" transform="translate(332.782 82.738)" style="display:block"/><path fill="#002A3A" d="M3.957 2.884c-.591 0-1.073.404-1.073.9 0 .495.482.899 1.073.899.592 0 1.072-.404 1.072-.899 0-.496-.48-.9-1.072-.9m0 4.683C1.775 7.567 0 5.87 0 3.784S1.775 0 3.957 0s3.957 1.698 3.957 3.784-1.775 3.783-3.957 3.783" transform="translate(204.715 13.53)" style="display:block"/><path fill="#002A3A" d="M50.795 109.801C22.787 109.801 0 85.173 0 54.901c0-10.612 2.807-20.912 8.116-29.783a1.443 1.443 0 0 1 2.476 1.481C5.55 35.023 2.884 44.81 2.884 54.901c0 28.682 21.493 52.016 47.911 52.016s47.91-23.334 47.91-52.016c0-28.158-20.714-51.163-46.468-51.994V16.38c0 .797-.645 1.442-1.442 1.442-18.814 0-34.12 16.634-34.12 37.079s15.306 37.078 34.12 37.078c18.813 0 34.12-16.633 34.12-37.078 0-15.342-8.486-28.889-21.621-34.512a1.443 1.443 0 0 1 1.136-2.651c14.196 6.078 23.369 20.666 23.369 37.163 0 22.036-16.6 39.962-37.004 39.962S13.791 76.937 13.791 54.901c0-21.514 15.823-39.112 35.562-39.933V1.442c0-.797.645-1.442 1.442-1.442 28.008 0 50.795 24.629 50.795 54.901s-22.787 54.9-50.795 54.9" transform="translate(171.748 13.646)" style="display:block"/></g></g></svg>